<svg width="1171" height="435" viewBox="0 0 1171 435" fill="none" xmlns="http://www.w3.org/2000/svg">
<g clip-path="url(#clip0_501_53)">
<path d="M314.469 158C314.469 227.036 370.433 283 439.469 283C476.803 283 564.469 283 564.469 283C564.469 283 564.469 189.701 564.469 158C564.469 88.9644 508.504 33 439.469 33C370.433 33 314.469 88.9644 314.469 158Z" fill="#3F83F8"/>
<path fill-rule="evenodd" clip-rule="evenodd" d="M439.469 45.5C501.601 45.5 551.969 95.8679 551.969 158V270.5H439.469C377.337 270.5 326.969 220.132 326.969 158C326.969 95.8679 377.337 45.5 439.469 45.5ZM564.469 283C576.969 283 576.969 283 576.969 282.999V158C576.969 82.0608 515.408 20.5 439.469 20.5C363.53 20.5 301.969 82.0608 301.969 158C301.969 233.939 363.53 295.5 439.469 295.5H564.468C564.468 295.5 564.469 295.5 564.469 283ZM564.469 283V295.5C571.372 295.5 576.969 289.904 576.969 283H564.469Z" fill="#09090B"/>
<path fill-rule="evenodd" clip-rule="evenodd" d="M514.469 120.5C514.469 113.596 508.872 108 501.969 108H389.469C382.565 108 376.969 113.596 376.969 120.5C376.969 127.404 382.565 133 389.469 133H501.969C508.872 133 514.469 127.404 514.469 120.5Z" fill="white"/>
<path fill-rule="evenodd" clip-rule="evenodd" d="M514.469 170.5C514.469 163.596 508.872 158 501.969 158H389.469C382.565 158 376.969 163.596 376.969 170.5C376.969 177.404 382.565 183 389.469 183H501.969C508.872 183 514.469 177.404 514.469 170.5Z" fill="white"/>
<path fill-rule="evenodd" clip-rule="evenodd" d="M514.469 220.5C514.469 213.596 508.872 208 501.969 208H439.469C432.565 208 426.969 213.596 426.969 220.5C426.969 227.404 432.565 233 439.469 233H501.969C508.872 233 514.469 227.404 514.469 220.5Z" fill="white"/>
</g>
<g clip-path="url(#clip1_501_53)">
<path d="M856.469 158C856.469 227.036 800.504 283 731.469 283C694.134 283 606.469 283 606.469 283C606.469 283 606.469 189.701 606.469 158C606.469 88.9644 662.433 33 731.469 33C800.504 33 856.469 88.9644 856.469 158Z" fill="#3F83F8"/>
<path fill-rule="evenodd" clip-rule="evenodd" d="M731.469 45.5C669.337 45.5 618.969 95.8679 618.969 158V270.5H731.469C793.601 270.5 843.969 220.132 843.969 158C843.969 95.8679 793.601 45.5 731.469 45.5ZM606.469 283C593.969 283 593.969 283 593.969 282.999V158C593.969 82.0608 655.53 20.5 731.469 20.5C807.408 20.5 868.969 82.0608 868.969 158C868.969 233.939 807.408 295.5 731.469 295.5H606.47C606.469 295.5 606.469 295.5 606.469 283ZM606.469 283V295.5C599.565 295.5 593.969 289.904 593.969 283H606.469Z" fill="#09090B"/>
<path fill-rule="evenodd" clip-rule="evenodd" d="M656.469 120.5C656.469 113.596 662.065 108 668.969 108H781.469C788.372 108 793.969 113.596 793.969 120.5C793.969 127.404 788.372 133 781.469 133H668.969C662.065 133 656.469 127.404 656.469 120.5Z" fill="white"/>
<path fill-rule="evenodd" clip-rule="evenodd" d="M656.469 170.5C656.469 163.596 662.065 158 668.969 158H781.469C788.372 158 793.969 163.596 793.969 170.5C793.969 177.404 788.372 183 781.469 183H668.969C662.065 183 656.469 177.404 656.469 170.5Z" fill="white"/>
<path fill-rule="evenodd" clip-rule="evenodd" d="M656.469 220.5C656.469 213.596 662.065 208 668.969 208H731.469C738.372 208 743.969 213.596 743.969 220.5C743.969 227.404 738.372 233 731.469 233H668.969C662.065 233 656.469 227.404 656.469 220.5Z" fill="white"/>
</g>
<mask id="path-11-outside-1_501_53" maskUnits="userSpaceOnUse" x="4" y="314" width="1163" height="117" fill="black">
<rect fill="white" x="4" y="314" width="1163" height="117"/>
<path d="M56.75 426.45C52.35 426.45 48.95 425.25 46.55 422.85C44.15 420.35 42.95 416.9 42.95 412.5V341.85H19.4C15.7 341.85 12.85 340.9 10.85 339C8.95 337 8 334.2 8 330.6C8 326.9 8.95 324.1 10.85 322.2C12.85 320.3 15.7 319.35 19.4 319.35H94.1C97.8 319.35 100.6 320.3 102.5 322.2C104.5 324.1 105.5 326.9 105.5 330.6C105.5 334.2 104.5 337 102.5 339C100.6 340.9 97.8 341.85 94.1 341.85H70.55V412.5C70.55 416.9 69.4 420.35 67.1 422.85C64.8 425.25 61.35 426.45 56.75 426.45Z"/>
<path d="M114.568 426.45C110.168 426.45 106.768 425.3 104.368 423C102.068 420.7 100.918 417.35 100.918 412.95V363.3C100.918 359 102.018 355.7 104.218 353.4C106.518 351.1 109.768 349.95 113.968 349.95C118.168 349.95 121.368 351.1 123.568 353.4C125.768 355.7 126.868 359 126.868 363.3V369.45H125.368C126.368 363.45 128.918 358.7 133.018 355.2C137.218 351.7 142.418 349.85 148.618 349.65C151.518 349.55 153.668 350.3 155.068 351.9C156.568 353.4 157.368 356.25 157.468 360.45C157.468 364.05 156.718 366.9 155.218 369C153.718 371.1 150.868 372.35 146.668 372.75L143.218 373.05C137.918 373.55 134.068 375.05 131.668 377.55C129.268 379.95 128.068 383.55 128.068 388.35V412.95C128.068 417.35 126.918 420.7 124.618 423C122.318 425.3 118.968 426.45 114.568 426.45Z"/>
<path d="M201.989 426.75C193.789 426.75 186.639 425.2 180.539 422.1C174.439 419 169.689 414.55 166.289 408.75C162.889 402.95 161.189 396.1 161.189 388.2C161.189 382.2 162.139 376.85 164.039 372.15C165.939 367.35 168.689 363.3 172.289 360C175.889 356.6 180.189 354.05 185.189 352.35C190.189 350.55 195.789 349.65 201.989 349.65C210.189 349.65 217.339 351.2 223.439 354.3C229.539 357.4 234.239 361.85 237.539 367.65C240.939 373.35 242.639 380.2 242.639 388.2C242.639 394.1 241.689 399.45 239.789 404.25C237.889 409.05 235.139 413.15 231.539 416.55C228.039 419.85 223.739 422.4 218.639 424.2C213.639 425.9 208.089 426.75 201.989 426.75ZM201.989 407.1C204.689 407.1 207.089 406.45 209.189 405.15C211.289 403.75 212.889 401.7 213.989 399C215.189 396.2 215.789 392.6 215.789 388.2C215.789 381.5 214.489 376.7 211.889 373.8C209.289 370.8 205.989 369.3 201.989 369.3C199.289 369.3 196.889 369.95 194.789 371.25C192.689 372.55 191.039 374.6 189.839 377.4C188.639 380.1 188.039 383.7 188.039 388.2C188.039 394.8 189.339 399.6 191.939 402.6C194.539 405.6 197.889 407.1 201.989 407.1Z"/>
<path d="M282.473 426.75C276.073 426.75 270.823 425.6 266.723 423.3C262.623 420.9 259.523 417.35 257.423 412.65C255.423 407.95 254.423 402 254.423 394.8V363.3C254.423 358.9 255.573 355.6 257.873 353.4C260.173 351.1 263.473 349.95 267.773 349.95C272.073 349.95 275.373 351.1 277.673 353.4C279.973 355.6 281.123 358.9 281.123 363.3V395.55C281.123 399.15 281.873 401.85 283.373 403.65C284.873 405.45 287.223 406.35 290.423 406.35C294.023 406.35 296.973 405.05 299.273 402.45C301.573 399.85 302.723 396.4 302.723 392.1V363.3C302.723 358.9 303.873 355.6 306.173 353.4C308.473 351.1 311.773 349.95 316.073 349.95C320.373 349.95 323.673 351.1 325.973 353.4C328.273 355.6 329.423 358.9 329.423 363.3V412.95C329.423 421.95 325.123 426.45 316.523 426.45C312.323 426.45 309.073 425.3 306.773 423C304.473 420.7 303.323 417.35 303.323 412.95V404.25L305.723 411.6C303.523 416.5 300.423 420.25 296.423 422.85C292.523 425.45 287.873 426.75 282.473 426.75Z"/>
<path d="M393.561 426.75C387.861 426.75 382.761 425.4 378.261 422.7C373.861 419.9 370.961 416.25 369.561 411.75L371.211 405.6V412.95C371.211 417.35 370.061 420.7 367.761 423C365.561 425.3 362.361 426.45 358.161 426.45C353.861 426.45 350.561 425.3 348.261 423C346.061 420.7 344.961 417.35 344.961 412.95V331.5C344.961 327.1 346.111 323.75 348.411 321.45C350.711 319.15 353.961 318 358.161 318C362.461 318 365.761 319.15 368.061 321.45C370.461 323.75 371.661 327.1 371.661 331.5V363.6H369.861C371.361 359.5 374.311 356.15 378.711 353.55C383.111 350.95 388.061 349.65 393.561 349.65C399.961 349.65 405.561 351.2 410.361 354.3C415.261 357.4 419.061 361.8 421.761 367.5C424.461 373.2 425.811 380.1 425.811 388.2C425.811 396.1 424.461 402.95 421.761 408.75C419.061 414.55 415.261 419 410.361 422.1C405.561 425.2 399.961 426.75 393.561 426.75ZM385.161 407.1C387.861 407.1 390.211 406.45 392.211 405.15C394.311 403.75 395.961 401.7 397.161 399C398.361 396.2 398.961 392.6 398.961 388.2C398.961 381.5 397.661 376.7 395.061 373.8C392.461 370.8 389.161 369.3 385.161 369.3C382.461 369.3 380.061 369.95 377.961 371.25C375.861 372.55 374.211 374.6 373.011 377.4C371.811 380.1 371.211 383.7 371.211 388.2C371.211 394.8 372.511 399.6 375.111 402.6C377.711 405.6 381.061 407.1 385.161 407.1Z"/>
<path d="M466.029 426.75C456.429 426.75 449.329 424.2 444.729 419.1C440.229 413.9 437.979 406.1 437.979 395.7V331.5C437.979 327.1 439.129 323.75 441.429 321.45C443.729 319.15 446.979 318 451.179 318C455.479 318 458.779 319.15 461.079 321.45C463.479 323.75 464.679 327.1 464.679 331.5V394.8C464.679 398.5 465.379 401.2 466.779 402.9C468.279 404.6 470.179 405.45 472.479 405.45C473.179 405.45 473.879 405.4 474.579 405.3C475.379 405.1 476.229 404.95 477.129 404.85C478.829 404.85 480.079 405.5 480.879 406.8C481.779 408.1 482.229 410.75 482.229 414.75C482.229 418.25 481.529 420.9 480.129 422.7C478.729 424.4 476.579 425.5 473.679 426C472.879 426.1 471.729 426.25 470.229 426.45C468.729 426.65 467.329 426.75 466.029 426.75Z"/>
<path d="M529.595 426.75C520.595 426.75 512.795 425.2 506.195 422.1C499.695 418.9 494.695 414.4 491.195 408.6C487.695 402.8 485.945 395.95 485.945 388.05C485.945 380.45 487.595 373.8 490.895 368.1C494.295 362.3 498.895 357.8 504.695 354.6C510.595 351.3 517.295 349.65 524.795 349.65C530.295 349.65 535.295 350.55 539.795 352.35C544.295 354.05 548.145 356.6 551.345 360C554.545 363.3 556.945 367.3 558.545 372C560.245 376.7 561.095 381.95 561.095 387.75C561.095 389.75 560.545 391.25 559.445 392.25C558.345 393.15 556.595 393.6 554.195 393.6H508.295V381H541.595L539.195 382.95C539.195 379.25 538.695 376.25 537.695 373.95C536.695 371.65 535.195 369.9 533.195 368.7C531.295 367.5 528.895 366.9 525.995 366.9C522.895 366.9 520.195 367.65 517.895 369.15C515.695 370.55 513.995 372.65 512.795 375.45C511.595 378.25 510.995 381.75 510.995 385.95V387.3C510.995 394.4 512.545 399.5 515.645 402.6C518.845 405.6 523.745 407.1 530.345 407.1C532.545 407.1 535.045 406.85 537.845 406.35C540.745 405.75 543.495 404.95 546.095 403.95C548.695 402.95 550.945 402.8 552.845 403.5C554.745 404.1 556.195 405.2 557.195 406.8C558.295 408.3 558.895 410.05 558.995 412.05C559.095 413.95 558.645 415.85 557.645 417.75C556.645 419.55 554.995 420.95 552.695 421.95C549.195 423.55 545.445 424.75 541.445 425.55C537.545 426.35 533.595 426.75 529.595 426.75Z"/>
<path d="M631.118 426.45C626.718 426.45 623.318 425.25 620.918 422.85C618.518 420.35 617.318 416.9 617.318 412.5V333.3C617.318 328.8 618.518 325.35 620.918 322.95C623.418 320.55 626.868 319.35 631.268 319.35H668.168C680.168 319.35 689.418 322.45 695.918 328.65C702.518 334.75 705.818 343.2 705.818 354C705.818 364.8 702.518 373.3 695.918 379.5C689.418 385.6 680.168 388.65 668.168 388.65H644.918V412.5C644.918 416.9 643.768 420.35 641.468 422.85C639.168 425.25 635.718 426.45 631.118 426.45ZM644.918 367.5H663.368C668.568 367.5 672.568 366.4 675.368 364.2C678.168 361.9 679.568 358.5 679.568 354C679.568 349.4 678.168 346 675.368 343.8C672.568 341.6 668.568 340.5 663.368 340.5H644.918V367.5Z"/>
<path d="M739.312 426.75C733.612 426.75 728.562 425.7 724.162 423.6C719.862 421.5 716.462 418.65 713.962 415.05C711.562 411.35 710.362 407.15 710.362 402.45C710.362 397.05 711.762 392.8 714.562 389.7C717.362 386.6 721.862 384.4 728.062 383.1C734.262 381.7 742.512 381 752.812 381H761.062V393.6H752.812C748.912 393.6 745.662 393.9 743.062 394.5C740.562 395 738.712 395.85 737.512 397.05C736.312 398.15 735.712 399.6 735.712 401.4C735.712 403.7 736.512 405.6 738.112 407.1C739.812 408.6 742.212 409.35 745.312 409.35C747.812 409.35 750.012 408.8 751.912 407.7C753.912 406.6 755.512 405.1 756.712 403.2C757.912 401.2 758.512 398.9 758.512 396.3V378.9C758.512 375.3 757.562 372.75 755.662 371.25C753.862 369.75 750.712 369 746.212 369C743.812 369 741.112 369.3 738.112 369.9C735.112 370.4 731.762 371.35 728.062 372.75C725.362 373.75 723.062 373.9 721.162 373.2C719.262 372.5 717.762 371.3 716.662 369.6C715.662 367.9 715.162 366.05 715.162 364.05C715.262 362.05 715.912 360.15 717.112 358.35C718.412 356.55 720.362 355.15 722.962 354.15C727.762 352.35 732.162 351.15 736.162 350.55C740.262 349.95 744.012 349.65 747.412 349.65C755.612 349.65 762.362 350.85 767.662 353.25C773.062 355.55 777.062 359.15 779.662 364.05C782.362 368.85 783.712 375.05 783.712 382.65V412.95C783.712 417.35 782.662 420.7 780.562 423C778.462 425.3 775.412 426.45 771.412 426.45C767.312 426.45 764.162 425.3 761.962 423C759.862 420.7 758.812 417.35 758.812 412.95V409.05L759.712 411.15C759.212 414.35 758.062 417.1 756.262 419.4C754.462 421.7 752.112 423.5 749.212 424.8C746.312 426.1 743.012 426.75 739.312 426.75Z"/>
<path d="M812.566 426.45C808.166 426.45 804.766 425.3 802.366 423C800.066 420.7 798.916 417.35 798.916 412.95V363.3C798.916 359 800.016 355.7 802.216 353.4C804.516 351.1 807.766 349.95 811.966 349.95C816.166 349.95 819.366 351.1 821.566 353.4C823.766 355.7 824.866 359 824.866 363.3V369.45H823.366C824.366 363.45 826.916 358.7 831.016 355.2C835.216 351.7 840.416 349.85 846.616 349.65C849.516 349.55 851.666 350.3 853.066 351.9C854.566 353.4 855.366 356.25 855.466 360.45C855.466 364.05 854.716 366.9 853.216 369C851.716 371.1 848.866 372.35 844.666 372.75L841.216 373.05C835.916 373.55 832.066 375.05 829.666 377.55C827.266 379.95 826.066 383.55 826.066 388.35V412.95C826.066 417.35 824.916 420.7 822.616 423C820.316 425.3 816.966 426.45 812.566 426.45Z"/>
<path d="M907.05 426.75C899.55 426.75 893.35 425.6 888.45 423.3C883.65 421 880.05 417.55 877.65 412.95C875.25 408.25 874.05 402.4 874.05 395.4V370.95H868.95C865.75 370.95 863.25 370.1 861.45 368.4C859.75 366.7 858.9 364.25 858.9 361.05C858.9 357.85 859.75 355.45 861.45 353.85C863.25 352.15 865.75 351.3 868.95 351.3H874.05V342C874.05 337.6 875.2 334.25 877.5 331.95C879.8 329.65 883.1 328.5 887.4 328.5C891.7 328.5 895 329.65 897.3 331.95C899.6 334.25 900.75 337.6 900.75 342V351.3H913.05C916.35 351.3 918.85 352.15 920.55 353.85C922.35 355.45 923.25 357.85 923.25 361.05C923.25 364.25 922.35 366.7 920.55 368.4C918.85 370.1 916.35 370.95 913.05 370.95H900.75V394.5C900.75 398.2 901.6 400.95 903.3 402.75C905.1 404.45 907.9 405.3 911.7 405.3C913.1 405.3 914.45 405.15 915.75 404.85C917.05 404.55 918.25 404.4 919.35 404.4C920.95 404.3 922.25 404.8 923.25 405.9C924.25 406.9 924.75 409.25 924.75 412.95C924.75 415.95 924.3 418.5 923.4 420.6C922.5 422.6 920.9 424.05 918.6 424.95C917.2 425.45 915.3 425.85 912.9 426.15C910.5 426.55 908.55 426.75 907.05 426.75Z"/>
<path d="M945.417 426.45C941.217 426.45 937.967 425.3 935.667 423C933.367 420.7 932.217 417.35 932.217 412.95V363.3C932.217 359 933.317 355.7 935.517 353.4C937.817 351.1 941.067 349.95 945.267 349.95C949.467 349.95 952.667 351.1 954.867 353.4C957.067 355.7 958.167 359 958.167 363.3V370.35L956.517 364.2C958.917 359.5 962.317 355.9 966.717 353.4C971.217 350.9 976.317 349.65 982.017 349.65C987.917 349.65 992.767 350.8 996.567 353.1C1000.37 355.3 1003.22 358.8 1005.12 363.6C1007.02 368.3 1007.97 374.25 1007.97 381.45V412.95C1007.97 417.35 1006.82 420.7 1004.52 423C1002.22 425.3 998.917 426.45 994.617 426.45C990.317 426.45 987.017 425.3 984.717 423C982.417 420.7 981.267 417.35 981.267 412.95V382.5C981.267 378 980.467 374.8 978.867 372.9C977.367 371 975.117 370.05 972.117 370.05C968.117 370.05 964.917 371.35 962.517 373.95C960.117 376.45 958.917 379.85 958.917 384.15V412.95C958.917 421.95 954.417 426.45 945.417 426.45Z"/>
<path d="M1063.38 426.75C1054.38 426.75 1046.58 425.2 1039.98 422.1C1033.48 418.9 1028.48 414.4 1024.98 408.6C1021.48 402.8 1019.73 395.95 1019.73 388.05C1019.73 380.45 1021.38 373.8 1024.68 368.1C1028.08 362.3 1032.68 357.8 1038.48 354.6C1044.38 351.3 1051.08 349.65 1058.58 349.65C1064.08 349.65 1069.08 350.55 1073.58 352.35C1078.08 354.05 1081.93 356.6 1085.13 360C1088.33 363.3 1090.73 367.3 1092.33 372C1094.03 376.7 1094.88 381.95 1094.88 387.75C1094.88 389.75 1094.33 391.25 1093.23 392.25C1092.13 393.15 1090.38 393.6 1087.98 393.6H1042.08V381H1075.38L1072.98 382.95C1072.98 379.25 1072.48 376.25 1071.48 373.95C1070.48 371.65 1068.98 369.9 1066.98 368.7C1065.08 367.5 1062.68 366.9 1059.78 366.9C1056.68 366.9 1053.98 367.65 1051.68 369.15C1049.48 370.55 1047.78 372.65 1046.58 375.45C1045.38 378.25 1044.78 381.75 1044.78 385.95V387.3C1044.78 394.4 1046.33 399.5 1049.43 402.6C1052.63 405.6 1057.53 407.1 1064.13 407.1C1066.33 407.1 1068.83 406.85 1071.63 406.35C1074.53 405.75 1077.28 404.95 1079.88 403.95C1082.48 402.95 1084.73 402.8 1086.63 403.5C1088.53 404.1 1089.98 405.2 1090.98 406.8C1092.08 408.3 1092.68 410.05 1092.78 412.05C1092.88 413.95 1092.43 415.85 1091.43 417.75C1090.43 419.55 1088.78 420.95 1086.48 421.95C1082.98 423.55 1079.23 424.75 1075.23 425.55C1071.33 426.35 1067.38 426.75 1063.38 426.75Z"/>
<path d="M1120.04 426.45C1115.64 426.45 1112.24 425.3 1109.84 423C1107.54 420.7 1106.39 417.35 1106.39 412.95V363.3C1106.39 359 1107.49 355.7 1109.69 353.4C1111.99 351.1 1115.24 349.95 1119.44 349.95C1123.64 349.95 1126.84 351.1 1129.04 353.4C1131.24 355.7 1132.34 359 1132.34 363.3V369.45H1130.84C1131.84 363.45 1134.39 358.7 1138.49 355.2C1142.69 351.7 1147.89 349.85 1154.09 349.65C1156.99 349.55 1159.14 350.3 1160.54 351.9C1162.04 353.4 1162.84 356.25 1162.94 360.45C1162.94 364.05 1162.19 366.9 1160.69 369C1159.19 371.1 1156.34 372.35 1152.14 372.75L1148.69 373.05C1143.39 373.55 1139.54 375.05 1137.14 377.55C1134.74 379.95 1133.54 383.55 1133.54 388.35V412.95C1133.54 417.35 1132.39 420.7 1130.09 423C1127.79 425.3 1124.44 426.45 1120.04 426.45Z"/>
</mask>
<path d="M56.75 426.45C52.35 426.45 48.95 425.25 46.55 422.85C44.15 420.35 42.95 416.9 42.95 412.5V341.85H19.4C15.7 341.85 12.85 340.9 10.85 339C8.95 337 8 334.2 8 330.6C8 326.9 8.95 324.1 10.85 322.2C12.85 320.3 15.7 319.35 19.4 319.35H94.1C97.8 319.35 100.6 320.3 102.5 322.2C104.5 324.1 105.5 326.9 105.5 330.6C105.5 334.2 104.5 337 102.5 339C100.6 340.9 97.8 341.85 94.1 341.85H70.55V412.5C70.55 416.9 69.4 420.35 67.1 422.85C64.8 425.25 61.35 426.45 56.75 426.45Z" fill="#09090B"/>
<path d="M114.568 426.45C110.168 426.45 106.768 425.3 104.368 423C102.068 420.7 100.918 417.35 100.918 412.95V363.3C100.918 359 102.018 355.7 104.218 353.4C106.518 351.1 109.768 349.95 113.968 349.95C118.168 349.95 121.368 351.1 123.568 353.4C125.768 355.7 126.868 359 126.868 363.3V369.45H125.368C126.368 363.45 128.918 358.7 133.018 355.2C137.218 351.7 142.418 349.85 148.618 349.65C151.518 349.55 153.668 350.3 155.068 351.9C156.568 353.4 157.368 356.25 157.468 360.45C157.468 364.05 156.718 366.9 155.218 369C153.718 371.1 150.868 372.35 146.668 372.75L143.218 373.05C137.918 373.55 134.068 375.05 131.668 377.55C129.268 379.95 128.068 383.55 128.068 388.35V412.95C128.068 417.35 126.918 420.7 124.618 423C122.318 425.3 118.968 426.45 114.568 426.45Z" fill="#09090B"/>
<path d="M201.989 426.75C193.789 426.75 186.639 425.2 180.539 422.1C174.439 419 169.689 414.55 166.289 408.75C162.889 402.95 161.189 396.1 161.189 388.2C161.189 382.2 162.139 376.85 164.039 372.15C165.939 367.35 168.689 363.3 172.289 360C175.889 356.6 180.189 354.05 185.189 352.35C190.189 350.55 195.789 349.65 201.989 349.65C210.189 349.65 217.339 351.2 223.439 354.3C229.539 357.4 234.239 361.85 237.539 367.65C240.939 373.35 242.639 380.2 242.639 388.2C242.639 394.1 241.689 399.45 239.789 404.25C237.889 409.05 235.139 413.15 231.539 416.55C228.039 419.85 223.739 422.4 218.639 424.2C213.639 425.9 208.089 426.75 201.989 426.75ZM201.989 407.1C204.689 407.1 207.089 406.45 209.189 405.15C211.289 403.75 212.889 401.7 213.989 399C215.189 396.2 215.789 392.6 215.789 388.2C215.789 381.5 214.489 376.7 211.889 373.8C209.289 370.8 205.989 369.3 201.989 369.3C199.289 369.3 196.889 369.95 194.789 371.25C192.689 372.55 191.039 374.6 189.839 377.4C188.639 380.1 188.039 383.7 188.039 388.2C188.039 394.8 189.339 399.6 191.939 402.6C194.539 405.6 197.889 407.1 201.989 407.1Z" fill="#09090B"/>
<path d="M282.473 426.75C276.073 426.75 270.823 425.6 266.723 423.3C262.623 420.9 259.523 417.35 257.423 412.65C255.423 407.95 254.423 402 254.423 394.8V363.3C254.423 358.9 255.573 355.6 257.873 353.4C260.173 351.1 263.473 349.95 267.773 349.95C272.073 349.95 275.373 351.1 277.673 353.4C279.973 355.6 281.123 358.9 281.123 363.3V395.55C281.123 399.15 281.873 401.85 283.373 403.65C284.873 405.45 287.223 406.35 290.423 406.35C294.023 406.35 296.973 405.05 299.273 402.45C301.573 399.85 302.723 396.4 302.723 392.1V363.3C302.723 358.9 303.873 355.6 306.173 353.4C308.473 351.1 311.773 349.95 316.073 349.95C320.373 349.95 323.673 351.1 325.973 353.4C328.273 355.6 329.423 358.9 329.423 363.3V412.95C329.423 421.95 325.123 426.45 316.523 426.45C312.323 426.45 309.073 425.3 306.773 423C304.473 420.7 303.323 417.35 303.323 412.95V404.25L305.723 411.6C303.523 416.5 300.423 420.25 296.423 422.85C292.523 425.45 287.873 426.75 282.473 426.75Z" fill="#09090B"/>
<path d="M393.561 426.75C387.861 426.75 382.761 425.4 378.261 422.7C373.861 419.9 370.961 416.25 369.561 411.75L371.211 405.6V412.95C371.211 417.35 370.061 420.7 367.761 423C365.561 425.3 362.361 426.45 358.161 426.45C353.861 426.45 350.561 425.3 348.261 423C346.061 420.7 344.961 417.35 344.961 412.95V331.5C344.961 327.1 346.111 323.75 348.411 321.45C350.711 319.15 353.961 318 358.161 318C362.461 318 365.761 319.15 368.061 321.45C370.461 323.75 371.661 327.1 371.661 331.5V363.6H369.861C371.361 359.5 374.311 356.15 378.711 353.55C383.111 350.95 388.061 349.65 393.561 349.65C399.961 349.65 405.561 351.2 410.361 354.3C415.261 357.4 419.061 361.8 421.761 367.5C424.461 373.2 425.811 380.1 425.811 388.2C425.811 396.1 424.461 402.95 421.761 408.75C419.061 414.55 415.261 419 410.361 422.1C405.561 425.2 399.961 426.75 393.561 426.75ZM385.161 407.1C387.861 407.1 390.211 406.45 392.211 405.15C394.311 403.75 395.961 401.7 397.161 399C398.361 396.2 398.961 392.6 398.961 388.2C398.961 381.5 397.661 376.7 395.061 373.8C392.461 370.8 389.161 369.3 385.161 369.3C382.461 369.3 380.061 369.95 377.961 371.25C375.861 372.55 374.211 374.6 373.011 377.4C371.811 380.1 371.211 383.7 371.211 388.2C371.211 394.8 372.511 399.6 375.111 402.6C377.711 405.6 381.061 407.1 385.161 407.1Z" fill="#09090B"/>
<path d="M466.029 426.75C456.429 426.75 449.329 424.2 444.729 419.1C440.229 413.9 437.979 406.1 437.979 395.7V331.5C437.979 327.1 439.129 323.75 441.429 321.45C443.729 319.15 446.979 318 451.179 318C455.479 318 458.779 319.15 461.079 321.45C463.479 323.75 464.679 327.1 464.679 331.5V394.8C464.679 398.5 465.379 401.2 466.779 402.9C468.279 404.6 470.179 405.45 472.479 405.45C473.179 405.45 473.879 405.4 474.579 405.3C475.379 405.1 476.229 404.95 477.129 404.85C478.829 404.85 480.079 405.5 480.879 406.8C481.779 408.1 482.229 410.75 482.229 414.75C482.229 418.25 481.529 420.9 480.129 422.7C478.729 424.4 476.579 425.5 473.679 426C472.879 426.1 471.729 426.25 470.229 426.45C468.729 426.65 467.329 426.75 466.029 426.75Z" fill="#09090B"/>
<path d="M529.595 426.75C520.595 426.75 512.795 425.2 506.195 422.1C499.695 418.9 494.695 414.4 491.195 408.6C487.695 402.8 485.945 395.95 485.945 388.05C485.945 380.45 487.595 373.8 490.895 368.1C494.295 362.3 498.895 357.8 504.695 354.6C510.595 351.3 517.295 349.65 524.795 349.65C530.295 349.65 535.295 350.55 539.795 352.35C544.295 354.05 548.145 356.6 551.345 360C554.545 363.3 556.945 367.3 558.545 372C560.245 376.7 561.095 381.95 561.095 387.75C561.095 389.75 560.545 391.25 559.445 392.25C558.345 393.15 556.595 393.6 554.195 393.6H508.295V381H541.595L539.195 382.95C539.195 379.25 538.695 376.25 537.695 373.95C536.695 371.65 535.195 369.9 533.195 368.7C531.295 367.5 528.895 366.9 525.995 366.9C522.895 366.9 520.195 367.65 517.895 369.15C515.695 370.55 513.995 372.65 512.795 375.45C511.595 378.25 510.995 381.75 510.995 385.95V387.3C510.995 394.4 512.545 399.5 515.645 402.6C518.845 405.6 523.745 407.1 530.345 407.1C532.545 407.1 535.045 406.85 537.845 406.35C540.745 405.75 543.495 404.95 546.095 403.95C548.695 402.95 550.945 402.8 552.845 403.5C554.745 404.1 556.195 405.2 557.195 406.8C558.295 408.3 558.895 410.05 558.995 412.05C559.095 413.95 558.645 415.85 557.645 417.75C556.645 419.55 554.995 420.95 552.695 421.95C549.195 423.55 545.445 424.75 541.445 425.55C537.545 426.35 533.595 426.75 529.595 426.75Z" fill="#09090B"/>
<path d="M631.118 426.45C626.718 426.45 623.318 425.25 620.918 422.85C618.518 420.35 617.318 416.9 617.318 412.5V333.3C617.318 328.8 618.518 325.35 620.918 322.95C623.418 320.55 626.868 319.35 631.268 319.35H668.168C680.168 319.35 689.418 322.45 695.918 328.65C702.518 334.75 705.818 343.2 705.818 354C705.818 364.8 702.518 373.3 695.918 379.5C689.418 385.6 680.168 388.65 668.168 388.65H644.918V412.5C644.918 416.9 643.768 420.35 641.468 422.85C639.168 425.25 635.718 426.45 631.118 426.45ZM644.918 367.5H663.368C668.568 367.5 672.568 366.4 675.368 364.2C678.168 361.9 679.568 358.5 679.568 354C679.568 349.4 678.168 346 675.368 343.8C672.568 341.6 668.568 340.5 663.368 340.5H644.918V367.5Z" fill="#09090B"/>
<path d="M739.312 426.75C733.612 426.75 728.562 425.7 724.162 423.6C719.862 421.5 716.462 418.65 713.962 415.05C711.562 411.35 710.362 407.15 710.362 402.45C710.362 397.05 711.762 392.8 714.562 389.7C717.362 386.6 721.862 384.4 728.062 383.1C734.262 381.7 742.512 381 752.812 381H761.062V393.6H752.812C748.912 393.6 745.662 393.9 743.062 394.5C740.562 395 738.712 395.85 737.512 397.05C736.312 398.15 735.712 399.6 735.712 401.4C735.712 403.7 736.512 405.6 738.112 407.1C739.812 408.6 742.212 409.35 745.312 409.35C747.812 409.35 750.012 408.8 751.912 407.7C753.912 406.6 755.512 405.1 756.712 403.2C757.912 401.2 758.512 398.9 758.512 396.3V378.9C758.512 375.3 757.562 372.75 755.662 371.25C753.862 369.75 750.712 369 746.212 369C743.812 369 741.112 369.3 738.112 369.9C735.112 370.4 731.762 371.35 728.062 372.75C725.362 373.75 723.062 373.9 721.162 373.2C719.262 372.5 717.762 371.3 716.662 369.6C715.662 367.9 715.162 366.05 715.162 364.05C715.262 362.05 715.912 360.15 717.112 358.35C718.412 356.55 720.362 355.15 722.962 354.15C727.762 352.35 732.162 351.15 736.162 350.55C740.262 349.95 744.012 349.65 747.412 349.65C755.612 349.65 762.362 350.85 767.662 353.25C773.062 355.55 777.062 359.15 779.662 364.05C782.362 368.85 783.712 375.05 783.712 382.65V412.95C783.712 417.35 782.662 420.7 780.562 423C778.462 425.3 775.412 426.45 771.412 426.45C767.312 426.45 764.162 425.3 761.962 423C759.862 420.7 758.812 417.35 758.812 412.95V409.05L759.712 411.15C759.212 414.35 758.062 417.1 756.262 419.4C754.462 421.7 752.112 423.5 749.212 424.8C746.312 426.1 743.012 426.75 739.312 426.75Z" fill="#09090B"/>
<path d="M812.566 426.45C808.166 426.45 804.766 425.3 802.366 423C800.066 420.7 798.916 417.35 798.916 412.95V363.3C798.916 359 800.016 355.7 802.216 353.4C804.516 351.1 807.766 349.95 811.966 349.95C816.166 349.95 819.366 351.1 821.566 353.4C823.766 355.7 824.866 359 824.866 363.3V369.45H823.366C824.366 363.45 826.916 358.7 831.016 355.2C835.216 351.7 840.416 349.85 846.616 349.65C849.516 349.55 851.666 350.3 853.066 351.9C854.566 353.4 855.366 356.25 855.466 360.45C855.466 364.05 854.716 366.9 853.216 369C851.716 371.1 848.866 372.35 844.666 372.75L841.216 373.05C835.916 373.55 832.066 375.05 829.666 377.55C827.266 379.95 826.066 383.55 826.066 388.35V412.95C826.066 417.35 824.916 420.7 822.616 423C820.316 425.3 816.966 426.45 812.566 426.45Z" fill="#09090B"/>
<path d="M907.05 426.75C899.55 426.75 893.35 425.6 888.45 423.3C883.65 421 880.05 417.55 877.65 412.95C875.25 408.25 874.05 402.4 874.05 395.4V370.95H868.95C865.75 370.95 863.25 370.1 861.45 368.4C859.75 366.7 858.9 364.25 858.9 361.05C858.9 357.85 859.75 355.45 861.45 353.85C863.25 352.15 865.75 351.3 868.95 351.3H874.05V342C874.05 337.6 875.2 334.25 877.5 331.95C879.8 329.65 883.1 328.5 887.4 328.5C891.7 328.5 895 329.65 897.3 331.95C899.6 334.25 900.75 337.6 900.75 342V351.3H913.05C916.35 351.3 918.85 352.15 920.55 353.85C922.35 355.45 923.25 357.85 923.25 361.05C923.25 364.25 922.35 366.7 920.55 368.4C918.85 370.1 916.35 370.95 913.05 370.95H900.75V394.5C900.75 398.2 901.6 400.95 903.3 402.75C905.1 404.45 907.9 405.3 911.7 405.3C913.1 405.3 914.45 405.15 915.75 404.85C917.05 404.55 918.25 404.4 919.35 404.4C920.95 404.3 922.25 404.8 923.25 405.9C924.25 406.9 924.75 409.25 924.75 412.95C924.75 415.95 924.3 418.5 923.4 420.6C922.5 422.6 920.9 424.05 918.6 424.95C917.2 425.45 915.3 425.85 912.9 426.15C910.5 426.55 908.55 426.75 907.05 426.75Z" fill="#09090B"/>
<path d="M945.417 426.45C941.217 426.45 937.967 425.3 935.667 423C933.367 420.7 932.217 417.35 932.217 412.95V363.3C932.217 359 933.317 355.7 935.517 353.4C937.817 351.1 941.067 349.95 945.267 349.95C949.467 349.95 952.667 351.1 954.867 353.4C957.067 355.7 958.167 359 958.167 363.3V370.35L956.517 364.2C958.917 359.5 962.317 355.9 966.717 353.4C971.217 350.9 976.317 349.65 982.017 349.65C987.917 349.65 992.767 350.8 996.567 353.1C1000.37 355.3 1003.22 358.8 1005.12 363.6C1007.02 368.3 1007.97 374.25 1007.97 381.45V412.95C1007.97 417.35 1006.82 420.7 1004.52 423C1002.22 425.3 998.917 426.45 994.617 426.45C990.317 426.45 987.017 425.3 984.717 423C982.417 420.7 981.267 417.35 981.267 412.95V382.5C981.267 378 980.467 374.8 978.867 372.9C977.367 371 975.117 370.05 972.117 370.05C968.117 370.05 964.917 371.35 962.517 373.95C960.117 376.45 958.917 379.85 958.917 384.15V412.95C958.917 421.95 954.417 426.45 945.417 426.45Z" fill="#09090B"/>
<path d="M1063.38 426.75C1054.38 426.75 1046.58 425.2 1039.98 422.1C1033.48 418.9 1028.48 414.4 1024.98 408.6C1021.48 402.8 1019.73 395.95 1019.73 388.05C1019.73 380.45 1021.38 373.8 1024.68 368.1C1028.08 362.3 1032.68 357.8 1038.48 354.6C1044.38 351.3 1051.08 349.65 1058.58 349.65C1064.08 349.65 1069.08 350.55 1073.58 352.35C1078.08 354.05 1081.93 356.6 1085.13 360C1088.33 363.3 1090.73 367.3 1092.33 372C1094.03 376.7 1094.88 381.95 1094.88 387.75C1094.88 389.75 1094.33 391.25 1093.23 392.25C1092.13 393.15 1090.38 393.6 1087.98 393.6H1042.08V381H1075.38L1072.98 382.95C1072.98 379.25 1072.48 376.25 1071.48 373.95C1070.48 371.65 1068.98 369.9 1066.98 368.7C1065.08 367.5 1062.68 366.9 1059.78 366.9C1056.68 366.9 1053.98 367.65 1051.68 369.15C1049.48 370.55 1047.78 372.65 1046.58 375.45C1045.38 378.25 1044.78 381.75 1044.78 385.95V387.3C1044.78 394.4 1046.33 399.5 1049.43 402.6C1052.63 405.6 1057.53 407.1 1064.13 407.1C1066.33 407.1 1068.83 406.85 1071.63 406.35C1074.53 405.75 1077.28 404.95 1079.88 403.95C1082.48 402.95 1084.73 402.8 1086.63 403.5C1088.53 404.1 1089.98 405.2 1090.98 406.8C1092.08 408.3 1092.68 410.05 1092.78 412.05C1092.88 413.95 1092.43 415.85 1091.43 417.75C1090.43 419.55 1088.78 420.95 1086.48 421.95C1082.98 423.55 1079.23 424.75 1075.23 425.55C1071.33 426.35 1067.38 426.75 1063.38 426.75Z" fill="#09090B"/>
<path d="M1120.04 426.45C1115.64 426.45 1112.24 425.3 1109.84 423C1107.54 420.7 1106.39 417.35 1106.39 412.95V363.3C1106.39 359 1107.49 355.7 1109.69 353.4C1111.99 351.1 1115.24 349.95 1119.44 349.95C1123.64 349.95 1126.84 351.1 1129.04 353.4C1131.24 355.7 1132.34 359 1132.34 363.3V369.45H1130.84C1131.84 363.45 1134.39 358.7 1138.49 355.2C1142.69 351.7 1147.89 349.85 1154.09 349.65C1156.99 349.55 1159.14 350.3 1160.54 351.9C1162.04 353.4 1162.84 356.25 1162.94 360.45C1162.94 364.05 1162.19 366.9 1160.69 369C1159.19 371.1 1156.34 372.35 1152.14 372.75L1148.69 373.05C1143.39 373.55 1139.54 375.05 1137.14 377.55C1134.74 379.95 1133.54 383.55 1133.54 388.35V412.95C1133.54 417.35 1132.39 420.7 1130.09 423C1127.79 425.3 1124.44 426.45 1120.04 426.45Z" fill="#09090B"/>
<path d="M56.75 426.45C52.35 426.45 48.95 425.25 46.55 422.85C44.15 420.35 42.95 416.9 42.95 412.5V341.85H19.4C15.7 341.85 12.85 340.9 10.85 339C8.95 337 8 334.2 8 330.6C8 326.9 8.95 324.1 10.85 322.2C12.85 320.3 15.7 319.35 19.4 319.35H94.1C97.8 319.35 100.6 320.3 102.5 322.2C104.5 324.1 105.5 326.9 105.5 330.6C105.5 334.2 104.5 337 102.5 339C100.6 340.9 97.8 341.85 94.1 341.85H70.55V412.5C70.55 416.9 69.4 420.35 67.1 422.85C64.8 425.25 61.35 426.45 56.75 426.45Z" stroke="#09090B" stroke-width="8" mask="url(#path-11-outside-1_501_53)"/>
<path d="M114.568 426.45C110.168 426.45 106.768 425.3 104.368 423C102.068 420.7 100.918 417.35 100.918 412.95V363.3C100.918 359 102.018 355.7 104.218 353.4C106.518 351.1 109.768 349.95 113.968 349.95C118.168 349.95 121.368 351.1 123.568 353.4C125.768 355.7 126.868 359 126.868 363.3V369.45H125.368C126.368 363.45 128.918 358.7 133.018 355.2C137.218 351.7 142.418 349.85 148.618 349.65C151.518 349.55 153.668 350.3 155.068 351.9C156.568 353.4 157.368 356.25 157.468 360.45C157.468 364.05 156.718 366.9 155.218 369C153.718 371.1 150.868 372.35 146.668 372.75L143.218 373.05C137.918 373.55 134.068 375.05 131.668 377.55C129.268 379.95 128.068 383.55 128.068 388.35V412.95C128.068 417.35 126.918 420.7 124.618 423C122.318 425.3 118.968 426.45 114.568 426.45Z" stroke="#09090B" stroke-width="8" mask="url(#path-11-outside-1_501_53)"/>
<path d="M201.989 426.75C193.789 426.75 186.639 425.2 180.539 422.1C174.439 419 169.689 414.55 166.289 408.75C162.889 402.95 161.189 396.1 161.189 388.2C161.189 382.2 162.139 376.85 164.039 372.15C165.939 367.35 168.689 363.3 172.289 360C175.889 356.6 180.189 354.05 185.189 352.35C190.189 350.55 195.789 349.65 201.989 349.65C210.189 349.65 217.339 351.2 223.439 354.3C229.539 357.4 234.239 361.85 237.539 367.65C240.939 373.35 242.639 380.2 242.639 388.2C242.639 394.1 241.689 399.45 239.789 404.25C237.889 409.05 235.139 413.15 231.539 416.55C228.039 419.85 223.739 422.4 218.639 424.2C213.639 425.9 208.089 426.75 201.989 426.75ZM201.989 407.1C204.689 407.1 207.089 406.45 209.189 405.15C211.289 403.75 212.889 401.7 213.989 399C215.189 396.2 215.789 392.6 215.789 388.2C215.789 381.5 214.489 376.7 211.889 373.8C209.289 370.8 205.989 369.3 201.989 369.3C199.289 369.3 196.889 369.95 194.789 371.25C192.689 372.55 191.039 374.6 189.839 377.4C188.639 380.1 188.039 383.7 188.039 388.2C188.039 394.8 189.339 399.6 191.939 402.6C194.539 405.6 197.889 407.1 201.989 407.1Z" stroke="#09090B" stroke-width="8" mask="url(#path-11-outside-1_501_53)"/>
<path d="M282.473 426.75C276.073 426.75 270.823 425.6 266.723 423.3C262.623 420.9 259.523 417.35 257.423 412.65C255.423 407.95 254.423 402 254.423 394.8V363.3C254.423 358.9 255.573 355.6 257.873 353.4C260.173 351.1 263.473 349.95 267.773 349.95C272.073 349.95 275.373 351.1 277.673 353.4C279.973 355.6 281.123 358.9 281.123 363.3V395.55C281.123 399.15 281.873 401.85 283.373 403.65C284.873 405.45 287.223 406.35 290.423 406.35C294.023 406.35 296.973 405.05 299.273 402.45C301.573 399.85 302.723 396.4 302.723 392.1V363.3C302.723 358.9 303.873 355.6 306.173 353.4C308.473 351.1 311.773 349.95 316.073 349.95C320.373 349.95 323.673 351.1 325.973 353.4C328.273 355.6 329.423 358.9 329.423 363.3V412.95C329.423 421.95 325.123 426.45 316.523 426.45C312.323 426.45 309.073 425.3 306.773 423C304.473 420.7 303.323 417.35 303.323 412.95V404.25L305.723 411.6C303.523 416.5 300.423 420.25 296.423 422.85C292.523 425.45 287.873 426.75 282.473 426.75Z" stroke="#09090B" stroke-width="8" mask="url(#path-11-outside-1_501_53)"/>
<path d="M393.561 426.75C387.861 426.75 382.761 425.4 378.261 422.7C373.861 419.9 370.961 416.25 369.561 411.75L371.211 405.6V412.95C371.211 417.35 370.061 420.7 367.761 423C365.561 425.3 362.361 426.45 358.161 426.45C353.861 426.45 350.561 425.3 348.261 423C346.061 420.7 344.961 417.35 344.961 412.95V331.5C344.961 327.1 346.111 323.75 348.411 321.45C350.711 319.15 353.961 318 358.161 318C362.461 318 365.761 319.15 368.061 321.45C370.461 323.75 371.661 327.1 371.661 331.5V363.6H369.861C371.361 359.5 374.311 356.15 378.711 353.55C383.111 350.95 388.061 349.65 393.561 349.65C399.961 349.65 405.561 351.2 410.361 354.3C415.261 357.4 419.061 361.8 421.761 367.5C424.461 373.2 425.811 380.1 425.811 388.2C425.811 396.1 424.461 402.95 421.761 408.75C419.061 414.55 415.261 419 410.361 422.1C405.561 425.2 399.961 426.75 393.561 426.75ZM385.161 407.1C387.861 407.1 390.211 406.45 392.211 405.15C394.311 403.75 395.961 401.7 397.161 399C398.361 396.2 398.961 392.6 398.961 388.2C398.961 381.5 397.661 376.7 395.061 373.8C392.461 370.8 389.161 369.3 385.161 369.3C382.461 369.3 380.061 369.95 377.961 371.25C375.861 372.55 374.211 374.6 373.011 377.4C371.811 380.1 371.211 383.7 371.211 388.2C371.211 394.8 372.511 399.6 375.111 402.6C377.711 405.6 381.061 407.1 385.161 407.1Z" stroke="#09090B" stroke-width="8" mask="url(#path-11-outside-1_501_53)"/>
<path d="M466.029 426.75C456.429 426.75 449.329 424.2 444.729 419.1C440.229 413.9 437.979 406.1 437.979 395.7V331.5C437.979 327.1 439.129 323.75 441.429 321.45C443.729 319.15 446.979 318 451.179 318C455.479 318 458.779 319.15 461.079 321.45C463.479 323.75 464.679 327.1 464.679 331.5V394.8C464.679 398.5 465.379 401.2 466.779 402.9C468.279 404.6 470.179 405.45 472.479 405.45C473.179 405.45 473.879 405.4 474.579 405.3C475.379 405.1 476.229 404.95 477.129 404.85C478.829 404.85 480.079 405.5 480.879 406.8C481.779 408.1 482.229 410.75 482.229 414.75C482.229 418.25 481.529 420.9 480.129 422.7C478.729 424.4 476.579 425.5 473.679 426C472.879 426.1 471.729 426.25 470.229 426.45C468.729 426.65 467.329 426.75 466.029 426.75Z" stroke="#09090B" stroke-width="8" mask="url(#path-11-outside-1_501_53)"/>
<path d="M529.595 426.75C520.595 426.75 512.795 425.2 506.195 422.1C499.695 418.9 494.695 414.4 491.195 408.6C487.695 402.8 485.945 395.95 485.945 388.05C485.945 380.45 487.595 373.8 490.895 368.1C494.295 362.3 498.895 357.8 504.695 354.6C510.595 351.3 517.295 349.65 524.795 349.65C530.295 349.65 535.295 350.55 539.795 352.35C544.295 354.05 548.145 356.6 551.345 360C554.545 363.3 556.945 367.3 558.545 372C560.245 376.7 561.095 381.95 561.095 387.75C561.095 389.75 560.545 391.25 559.445 392.25C558.345 393.15 556.595 393.6 554.195 393.6H508.295V381H541.595L539.195 382.95C539.195 379.25 538.695 376.25 537.695 373.95C536.695 371.65 535.195 369.9 533.195 368.7C531.295 367.5 528.895 366.9 525.995 366.9C522.895 366.9 520.195 367.65 517.895 369.15C515.695 370.55 513.995 372.65 512.795 375.45C511.595 378.25 510.995 381.75 510.995 385.95V387.3C510.995 394.4 512.545 399.5 515.645 402.6C518.845 405.6 523.745 407.1 530.345 407.1C532.545 407.1 535.045 406.85 537.845 406.35C540.745 405.75 543.495 404.95 546.095 403.95C548.695 402.95 550.945 402.8 552.845 403.5C554.745 404.1 556.195 405.2 557.195 406.8C558.295 408.3 558.895 410.05 558.995 412.05C559.095 413.95 558.645 415.85 557.645 417.75C556.645 419.55 554.995 420.95 552.695 421.95C549.195 423.55 545.445 424.75 541.445 425.55C537.545 426.35 533.595 426.75 529.595 426.75Z" stroke="#09090B" stroke-width="8" mask="url(#path-11-outside-1_501_53)"/>
<path d="M631.118 426.45C626.718 426.45 623.318 425.25 620.918 422.85C618.518 420.35 617.318 416.9 617.318 412.5V333.3C617.318 328.8 618.518 325.35 620.918 322.95C623.418 320.55 626.868 319.35 631.268 319.35H668.168C680.168 319.35 689.418 322.45 695.918 328.65C702.518 334.75 705.818 343.2 705.818 354C705.818 364.8 702.518 373.3 695.918 379.5C689.418 385.6 680.168 388.65 668.168 388.65H644.918V412.5C644.918 416.9 643.768 420.35 641.468 422.85C639.168 425.25 635.718 426.45 631.118 426.45ZM644.918 367.5H663.368C668.568 367.5 672.568 366.4 675.368 364.2C678.168 361.9 679.568 358.5 679.568 354C679.568 349.4 678.168 346 675.368 343.8C672.568 341.6 668.568 340.5 663.368 340.5H644.918V367.5Z" stroke="#09090B" stroke-width="8" mask="url(#path-11-outside-1_501_53)"/>
<path d="M739.312 426.75C733.612 426.75 728.562 425.7 724.162 423.6C719.862 421.5 716.462 418.65 713.962 415.05C711.562 411.35 710.362 407.15 710.362 402.45C710.362 397.05 711.762 392.8 714.562 389.7C717.362 386.6 721.862 384.4 728.062 383.1C734.262 381.7 742.512 381 752.812 381H761.062V393.6H752.812C748.912 393.6 745.662 393.9 743.062 394.5C740.562 395 738.712 395.85 737.512 397.05C736.312 398.15 735.712 399.6 735.712 401.4C735.712 403.7 736.512 405.6 738.112 407.1C739.812 408.6 742.212 409.35 745.312 409.35C747.812 409.35 750.012 408.8 751.912 407.7C753.912 406.6 755.512 405.1 756.712 403.2C757.912 401.2 758.512 398.9 758.512 396.3V378.9C758.512 375.3 757.562 372.75 755.662 371.25C753.862 369.75 750.712 369 746.212 369C743.812 369 741.112 369.3 738.112 369.9C735.112 370.4 731.762 371.35 728.062 372.75C725.362 373.75 723.062 373.9 721.162 373.2C719.262 372.5 717.762 371.3 716.662 369.6C715.662 367.9 715.162 366.05 715.162 364.05C715.262 362.05 715.912 360.15 717.112 358.35C718.412 356.55 720.362 355.15 722.962 354.15C727.762 352.35 732.162 351.15 736.162 350.55C740.262 349.95 744.012 349.65 747.412 349.65C755.612 349.65 762.362 350.85 767.662 353.25C773.062 355.55 777.062 359.15 779.662 364.05C782.362 368.85 783.712 375.05 783.712 382.65V412.95C783.712 417.35 782.662 420.7 780.562 423C778.462 425.3 775.412 426.45 771.412 426.45C767.312 426.45 764.162 425.3 761.962 423C759.862 420.7 758.812 417.35 758.812 412.95V409.05L759.712 411.15C759.212 414.35 758.062 417.1 756.262 419.4C754.462 421.7 752.112 423.5 749.212 424.8C746.312 426.1 743.012 426.75 739.312 426.75Z" stroke="#09090B" stroke-width="8" mask="url(#path-11-outside-1_501_53)"/>
<path d="M812.566 426.45C808.166 426.45 804.766 425.3 802.366 423C800.066 420.7 798.916 417.35 798.916 412.95V363.3C798.916 359 800.016 355.7 802.216 353.4C804.516 351.1 807.766 349.95 811.966 349.95C816.166 349.95 819.366 351.1 821.566 353.4C823.766 355.7 824.866 359 824.866 363.3V369.45H823.366C824.366 363.45 826.916 358.7 831.016 355.2C835.216 351.7 840.416 349.85 846.616 349.65C849.516 349.55 851.666 350.3 853.066 351.9C854.566 353.4 855.366 356.25 855.466 360.45C855.466 364.05 854.716 366.9 853.216 369C851.716 371.1 848.866 372.35 844.666 372.75L841.216 373.05C835.916 373.55 832.066 375.05 829.666 377.55C827.266 379.95 826.066 383.55 826.066 388.35V412.95C826.066 417.35 824.916 420.7 822.616 423C820.316 425.3 816.966 426.45 812.566 426.45Z" stroke="#09090B" stroke-width="8" mask="url(#path-11-outside-1_501_53)"/>
<path d="M907.05 426.75C899.55 426.75 893.35 425.6 888.45 423.3C883.65 421 880.05 417.55 877.65 412.95C875.25 408.25 874.05 402.4 874.05 395.4V370.95H868.95C865.75 370.95 863.25 370.1 861.45 368.4C859.75 366.7 858.9 364.25 858.9 361.05C858.9 357.85 859.75 355.45 861.45 353.85C863.25 352.15 865.75 351.3 868.95 351.3H874.05V342C874.05 337.6 875.2 334.25 877.5 331.95C879.8 329.65 883.1 328.5 887.4 328.5C891.7 328.5 895 329.65 897.3 331.95C899.6 334.25 900.75 337.6 900.75 342V351.3H913.05C916.35 351.3 918.85 352.15 920.55 353.85C922.35 355.45 923.25 357.85 923.25 361.05C923.25 364.25 922.35 366.7 920.55 368.4C918.85 370.1 916.35 370.95 913.05 370.95H900.75V394.5C900.75 398.2 901.6 400.95 903.3 402.75C905.1 404.45 907.9 405.3 911.7 405.3C913.1 405.3 914.45 405.15 915.75 404.85C917.05 404.55 918.25 404.4 919.35 404.4C920.95 404.3 922.25 404.8 923.25 405.9C924.25 406.9 924.75 409.25 924.75 412.95C924.75 415.95 924.3 418.5 923.4 420.6C922.5 422.6 920.9 424.05 918.6 424.95C917.2 425.45 915.3 425.85 912.9 426.15C910.5 426.55 908.55 426.75 907.05 426.75Z" stroke="#09090B" stroke-width="8" mask="url(#path-11-outside-1_501_53)"/>
<path d="M945.417 426.45C941.217 426.45 937.967 425.3 935.667 423C933.367 420.7 932.217 417.35 932.217 412.95V363.3C932.217 359 933.317 355.7 935.517 353.4C937.817 351.1 941.067 349.95 945.267 349.95C949.467 349.95 952.667 351.1 954.867 353.4C957.067 355.7 958.167 359 958.167 363.3V370.35L956.517 364.2C958.917 359.5 962.317 355.9 966.717 353.4C971.217 350.9 976.317 349.65 982.017 349.65C987.917 349.65 992.767 350.8 996.567 353.1C1000.37 355.3 1003.22 358.8 1005.12 363.6C1007.02 368.3 1007.97 374.25 1007.97 381.45V412.95C1007.97 417.35 1006.82 420.7 1004.52 423C1002.22 425.3 998.917 426.45 994.617 426.45C990.317 426.45 987.017 425.3 984.717 423C982.417 420.7 981.267 417.35 981.267 412.95V382.5C981.267 378 980.467 374.8 978.867 372.9C977.367 371 975.117 370.05 972.117 370.05C968.117 370.05 964.917 371.35 962.517 373.95C960.117 376.45 958.917 379.85 958.917 384.15V412.95C958.917 421.95 954.417 426.45 945.417 426.45Z" stroke="#09090B" stroke-width="8" mask="url(#path-11-outside-1_501_53)"/>
<path d="M1063.38 426.75C1054.38 426.75 1046.58 425.2 1039.98 422.1C1033.48 418.9 1028.48 414.4 1024.98 408.6C1021.48 402.8 1019.73 395.95 1019.73 388.05C1019.73 380.45 1021.38 373.8 1024.68 368.1C1028.08 362.3 1032.68 357.8 1038.48 354.6C1044.38 351.3 1051.08 349.65 1058.58 349.65C1064.08 349.65 1069.08 350.55 1073.58 352.35C1078.08 354.05 1081.93 356.6 1085.13 360C1088.33 363.3 1090.73 367.3 1092.33 372C1094.03 376.7 1094.88 381.95 1094.88 387.75C1094.88 389.75 1094.33 391.25 1093.23 392.25C1092.13 393.15 1090.38 393.6 1087.98 393.6H1042.08V381H1075.38L1072.98 382.95C1072.98 379.25 1072.48 376.25 1071.48 373.95C1070.48 371.65 1068.98 369.9 1066.98 368.7C1065.08 367.5 1062.68 366.9 1059.78 366.9C1056.68 366.9 1053.98 367.65 1051.68 369.15C1049.48 370.55 1047.78 372.65 1046.58 375.45C1045.38 378.25 1044.78 381.75 1044.78 385.95V387.3C1044.78 394.4 1046.33 399.5 1049.43 402.6C1052.63 405.6 1057.53 407.1 1064.13 407.1C1066.33 407.1 1068.83 406.85 1071.63 406.35C1074.53 405.75 1077.28 404.95 1079.88 403.95C1082.48 402.95 1084.73 402.8 1086.63 403.5C1088.53 404.1 1089.98 405.2 1090.98 406.8C1092.08 408.3 1092.68 410.05 1092.78 412.05C1092.88 413.95 1092.43 415.85 1091.43 417.75C1090.43 419.55 1088.78 420.95 1086.48 421.95C1082.98 423.55 1079.23 424.75 1075.23 425.55C1071.33 426.35 1067.38 426.75 1063.38 426.75Z" stroke="#09090B" stroke-width="8" mask="url(#path-11-outside-1_501_53)"/>
<path d="M1120.04 426.45C1115.64 426.45 1112.24 425.3 1109.84 423C1107.54 420.7 1106.39 417.35 1106.39 412.95V363.3C1106.39 359 1107.49 355.7 1109.69 353.4C1111.99 351.1 1115.24 349.95 1119.44 349.95C1123.64 349.95 1126.84 351.1 1129.04 353.4C1131.24 355.7 1132.34 359 1132.34 363.3V369.45H1130.84C1131.84 363.45 1134.39 358.7 1138.49 355.2C1142.69 351.7 1147.89 349.85 1154.09 349.65C1156.99 349.55 1159.14 350.3 1160.54 351.9C1162.04 353.4 1162.84 356.25 1162.94 360.45C1162.94 364.05 1162.19 366.9 1160.69 369C1159.19 371.1 1156.34 372.35 1152.14 372.75L1148.69 373.05C1143.39 373.55 1139.54 375.05 1137.14 377.55C1134.74 379.95 1133.54 383.55 1133.54 388.35V412.95C1133.54 417.35 1132.39 420.7 1130.09 423C1127.79 425.3 1124.44 426.45 1120.04 426.45Z" stroke="#09090B" stroke-width="8" mask="url(#path-11-outside-1_501_53)"/>
<defs>
<clipPath id="clip0_501_53">
<rect width="300" height="300" fill="white" transform="matrix(-1 0 0 1 589.469 8)"/>
</clipPath>
<clipPath id="clip1_501_53">
<rect width="300" height="300" fill="white" transform="translate(581.469 8)"/>
</clipPath>
</defs>
</svg>
